<svg class="main-svg" xmlns="http://www.w3.org/2000/svg" xmlns:xlink="http://www.w3.org/1999/xlink" width="850" height="500" style="" viewBox="0 0 850 500"><rect x="0" y="0" width="850" height="500" style="fill: rgb(255, 255, 255); fill-opacity: 1;"/><defs id="defs-fb93e0"><g class="clips"><clipPath id="clipfb93e0xyplot" class="plotclip"><rect width="513" height="320"/></clipPath><clipPath class="axesclip" id="clipfb93e0x"><rect x="82" y="0" width="513" height="500"/></clipPath><clipPath class="axesclip" id="clipfb93e0y"><rect x="0" y="100" width="850" height="320"/></clipPath><clipPath class="axesclip" id="clipfb93e0xy"><rect x="82" y="100" width="513" height="320"/></clipPath></g><g class="gradients"/><g class="patterns"/></defs><g class="bglayer"><rect class="bg" x="82" y="100" width="513" height="320" style="fill: rgb(229, 236, 246); fill-opacity: 1; stroke-width: 0;"/></g><g class="layer-below"><g class="imagelayer"/><g class="shapelayer"/></g><g class="cartesianlayer"><g class="subplot xy"><g class="layer-subplot"><g class="shapelayer"/><g class="imagelayer"/></g><g class="gridlayer"><g class="x"><path class="xgrid crisp" transform="translate(185.64,0)" d="M0,100v320" style="stroke: rgb(255, 255, 255); stroke-opacity: 1; stroke-width: 1px;"/><path class="xgrid crisp" transform="translate(289.27,0)" d="M0,100v320" style="stroke: rgb(255, 255, 255); stroke-opacity: 1; stroke-width: 1px;"/><path class="xgrid crisp" transform="translate(392.91,0)" d="M0,100v320" style="stroke: rgb(255, 255, 255); stroke-opacity: 1; stroke-width: 1px;"/><path class="xgrid crisp" transform="translate(496.55,0)" d="M0,100v320" style="stroke: rgb(255, 255, 255); stroke-opacity: 1; stroke-width: 1px;"/></g><g class="y"><path class="ygrid crisp" transform="translate(0,404)" d="M82,0h513" style="stroke: rgb(255, 255, 255); stroke-opacity: 1; stroke-width: 1px;"/><path class="ygrid crisp" transform="translate(0,346.4)" d="M82,0h513" style="stroke: rgb(255, 255, 255); stroke-opacity: 1; stroke-width: 1px;"/><path class="ygrid crisp" transform="translate(0,288.8)" d="M82,0h513" style="stroke: rgb(255, 255, 255); stroke-opacity: 1; stroke-width: 1px;"/><path class="ygrid crisp" transform="translate(0,231.2)" d="M82,0h513" style="stroke: rgb(255, 255, 255); stroke-opacity: 1; stroke-width: 1px;"/><path class="ygrid crisp" transform="translate(0,173.6)" d="M82,0h513" style="stroke: rgb(255, 255, 255); stroke-opacity: 1; stroke-width: 1px;"/><path class="ygrid crisp" transform="translate(0,116)" d="M82,0h513" style="stroke: rgb(255, 255, 255); stroke-opacity: 1; stroke-width: 1px;"/></g></g><g class="zerolinelayer"/><path class="xlines-below"/><path class="ylines-below"/><g class="overlines-below"/><g class="xaxislayer-below"/><g class="yaxislayer-below"/><g class="overaxes-below"/><g class="plot" transform="translate(82,100)" clip-path="url(#clipfb93e0xyplot)"><g class="scatterlayer mlayer"><g class="trace scatter tracef1433d" style="stroke-miterlimit: 2; opacity: 1;"><g class="fills"/><g class="errorbars"/><g class="lines"><path class="js-line" d="M0,16L5.18,23.05L10.36,43.5L15.55,75.36L20.73,115.5L36.27,244.64L41.45,276.5L46.64,296.95L51.82,304L57,296.95L62.18,276.5L67.36,244.64L72.55,204.5L88.09,75.36L93.27,43.5L98.45,23.05L103.64,16L108.82,23.05L114,43.5L119.18,75.36L124.36,115.5L139.91,244.64L145.09,276.5L150.27,296.95L155.45,304L160.64,296.95L165.82,276.5L171,244.64L176.18,204.5L191.73,75.36L196.91,43.5L202.09,23.05L207.27,16L212.45,23.05L217.64,43.5L222.82,75.36L228,115.5L243.55,244.64L248.73,276.5L253.91,296.95L259.09,304L264.27,296.95L269.45,276.5L274.64,244.64L279.82,204.5L295.36,75.36L300.55,43.5L305.73,23.05L310.91,16L316.09,23.05L321.27,43.5L326.45,75.36L331.64,115.5L347.18,244.64L352.36,276.5L357.55,296.95L362.73,304L367.91,296.95L373.09,276.5L378.27,244.64L383.45,204.5L399,75.36L404.18,43.5L409.36,23.05L414.55,16L419.73,23.05L424.91,43.5L430.09,75.36L435.27,115.5L450.82,244.64L456,276.5L461.18,296.95L466.36,304L471.55,296.95L476.73,276.5L481.91,244.64L487.09,204.5L502.64,75.36L507.82,43.5L513,23.05" style="vector-effect: non-scaling-stroke; fill: none; stroke: rgb(150, 195, 125); stroke-opacity: 1; stroke-width: 2px; opacity: 1;"/></g><g class="points"/><g class="text"/></g><g class="trace scatter tracea953f9" style="stroke-miterlimit: 2; opacity: 1;"><g class="fills"/><g class="errorbars"/><g class="lines"><path class="js-line" d="M0,44.8L5.18,51.14L10.36,69.55L15.55,98.22L20.73,134.35L36.27,250.58L41.45,279.25L46.64,297.66L51.82,304L57,297.66L62.18,279.25L67.36,250.58L72.55,214.45L88.09,98.22L93.27,69.55L98.45,51.14L103.64,44.8L108.82,51.14L114,69.55L119.18,98.22L124.36,134.35L139.91,250.58L145.09,279.25L150.27,297.66L155.45,304L160.64,297.66L165.82,279.25L171,250.58L176.18,214.45L191.73,98.22L196.91,69.55L202.09,51.14L207.27,44.8L212.45,51.14L217.64,69.55L222.82,98.22L228,134.35L243.55,250.58L248.73,279.25L253.91,297.66L259.09,304L264.27,297.66L269.45,279.25L274.64,250.58L279.82,214.45L295.36,98.22L300.55,69.55L305.73,51.14L310.91,44.8L316.09,51.14L321.27,69.55L326.45,98.22L331.64,134.35L347.18,250.58L352.36,279.25L357.55,297.66L362.73,304L367.91,297.66L373.09,279.25L378.27,250.58L383.45,214.45L399,98.22L404.18,69.55L409.36,51.14L414.55,44.8L419.73,51.14L424.91,69.55L430.09,98.22L435.27,134.35L450.82,250.58L456,279.25L461.18,297.66L466.36,304L471.55,297.66L476.73,279.25L481.91,250.58L487.09,214.45L502.64,98.22L507.82,69.55L513,51.14" style="vector-effect: non-scaling-stroke; fill: none; stroke: rgb(255, 190, 122); stroke-opacity: 1; stroke-width: 2px; opacity: 1;"/></g><g class="points"/><g class="text"/></g><g class="trace scatter traceaac687" style="stroke-miterlimit: 2; opacity: 1;"><g class="fills"/><g class="errorbars"/><g class="lines"><path class="js-line" d="M0,70.72L5.18,76.43L10.36,93L15.55,118.8L20.73,151.32L36.27,255.92L41.45,281.72L46.64,298.29L51.82,304L57,298.29L62.18,281.72L67.36,255.92L72.55,223.4L88.09,118.8L93.27,93L98.45,76.43L103.64,70.72L108.82,76.43L114,93L119.18,118.8L124.36,151.32L139.91,255.92L145.09,281.72L150.27,298.29L155.45,304L160.64,298.29L165.82,281.72L171,255.92L176.18,223.4L191.73,118.8L196.91,93L202.09,76.43L207.27,70.72L212.45,76.43L217.64,93L222.82,118.8L228,151.32L243.55,255.92L248.73,281.72L253.91,298.29L259.09,304L264.27,298.29L269.45,281.72L274.64,255.92L279.82,223.4L295.36,118.8L300.55,93L305.73,76.43L310.91,70.72L316.09,76.43L321.27,93L326.45,118.8L331.64,151.32L347.18,255.92L352.36,281.72L357.55,298.29L362.73,304L367.91,298.29L373.09,281.72L378.27,255.92L383.45,223.4L399,118.8L404.18,93L409.36,76.43L414.55,70.72L419.73,76.43L424.91,93L430.09,118.8L435.27,151.32L450.82,255.92L456,281.72L461.18,298.29L466.36,304L471.55,298.29L476.73,281.72L481.91,255.92L487.09,223.4L502.64,118.8L507.82,93L513,76.43" style="vector-effect: non-scaling-stroke; fill: none; stroke: rgb(250, 127, 111); stroke-opacity: 1; stroke-width: 2px; opacity: 1;"/></g><g class="points"/><g class="text"/></g><g class="trace scatter tracee9bab3" style="stroke-miterlimit: 2; opacity: 1;"><g class="fills"/><g class="errorbars"/><g class="lines"><path class="js-line" d="M0,94.05L5.18,99.19L10.36,114.1L15.55,137.32L20.73,166.58L36.27,260.73L41.45,283.95L46.64,298.86L51.82,304L57,298.86L62.18,283.95L67.36,260.73L72.55,231.46L88.09,137.32L93.27,114.1L98.45,99.19L103.64,94.05L108.82,99.19L114,114.1L119.18,137.32L124.36,166.58L139.91,260.73L145.09,283.95L150.27,298.86L155.45,304L160.64,298.86L165.82,283.95L171,260.73L176.18,231.46L191.73,137.32L196.91,114.1L202.09,99.19L207.27,94.05L212.45,99.19L217.64,114.1L222.82,137.32L228,166.58L243.55,260.73L248.73,283.95L253.91,298.86L259.09,304L264.27,298.86L269.45,283.95L274.64,260.73L279.82,231.46L295.36,137.32L300.55,114.1L305.73,99.19L310.91,94.05L316.09,99.19L321.27,114.1L326.45,137.32L331.64,166.58L347.18,260.73L352.36,283.95L357.55,298.86L362.73,304L367.91,298.86L373.09,283.95L378.27,260.73L383.45,231.46L399,137.32L404.18,114.1L409.36,99.19L414.55,94.05L419.73,99.19L424.91,114.1L430.09,137.32L435.27,166.58L450.82,260.73L456,283.95L461.18,298.86L466.36,304L471.55,298.86L476.73,283.95L481.91,260.73L487.09,231.46L502.64,137.32L507.82,114.1L513,99.19" style="vector-effect: non-scaling-stroke; fill: none; stroke: rgb(130, 176, 210); stroke-opacity: 1; stroke-width: 2px; opacity: 1;"/></g><g class="points"/><g class="text"/></g><g class="trace scatter trace88e542" style="stroke-miterlimit: 2; opacity: 1;"><g class="fills"/><g class="errorbars"/><g class="lines"><path class="js-line" d="M0,115.04L5.18,119.67L10.36,133.09L15.55,153.99L20.73,180.33L36.27,265.05L41.45,285.96L46.64,299.38L51.82,304L57,299.38L62.18,285.96L67.36,265.05L72.55,238.72L88.09,153.99L93.27,133.09L98.45,119.67L103.64,115.04L108.82,119.67L114,133.09L119.18,153.99L124.36,180.33L139.91,265.05L145.09,285.96L150.27,299.38L155.45,304L160.64,299.38L165.82,285.96L171,265.05L176.18,238.72L191.73,153.99L196.91,133.09L202.09,119.67L207.27,115.04L212.45,119.67L217.64,133.09L222.82,153.99L228,180.33L243.55,265.05L248.73,285.96L253.91,299.38L259.09,304L264.27,299.38L269.45,285.96L274.64,265.05L279.82,238.72L295.36,153.99L300.55,133.09L305.73,119.67L310.91,115.04L316.09,119.67L321.27,133.09L326.45,153.99L331.64,180.33L347.18,265.05L352.36,285.96L357.55,299.38L362.73,304L367.91,299.38L373.09,285.96L378.27,265.05L383.45,238.72L399,153.99L404.18,133.09L409.36,119.67L414.55,115.04L419.73,119.67L424.91,133.09L430.09,153.99L435.27,180.33L450.82,265.05L456,285.96L461.18,299.38L466.36,304L471.55,299.38L476.73,285.96L481.91,265.05L487.09,238.72L502.64,153.99L507.82,133.09L513,119.67" style="vector-effect: non-scaling-stroke; fill: none; stroke: rgb(190, 184, 220); stroke-opacity: 1; stroke-width: 2px; opacity: 1;"/></g><g class="points"/><g class="text"/></g></g></g><g class="overplot"/><path class="xlines-above crisp" d="M0,0" style="fill: none;"/><path class="ylines-above crisp" d="M0,0" style="fill: none;"/><g class="overlines-above"/><g class="xaxislayer-above"><g class="xtick"><text text-anchor="middle" x="0" y="433" transform="translate(82,0)" style="font-family: 'Open Sans', verdana, arial, sans-serif; font-size: 12px; fill: rgb(42, 63, 95); fill-opacity: 1; white-space: pre; opacity: 1;">0</text></g><g class="xtick"><text text-anchor="middle" x="0" y="433" style="font-family: 'Open Sans', verdana, arial, sans-serif; font-size: 12px; fill: rgb(42, 63, 95); fill-opacity: 1; white-space: pre; opacity: 1;" transform="translate(185.64,0)">20</text></g><g class="xtick"><text text-anchor="middle" x="0" y="433" style="font-family: 'Open Sans', verdana, arial, sans-serif; font-size: 12px; fill: rgb(42, 63, 95); fill-opacity: 1; white-space: pre; opacity: 1;" transform="translate(289.27,0)">40</text></g><g class="xtick"><text text-anchor="middle" x="0" y="433" style="font-family: 'Open Sans', verdana, arial, sans-serif; font-size: 12px; fill: rgb(42, 63, 95); fill-opacity: 1; white-space: pre; opacity: 1;" transform="translate(392.91,0)">60</text></g><g class="xtick"><text text-anchor="middle" x="0" y="433" style="font-family: 'Open Sans', verdana, arial, sans-serif; font-size: 12px; fill: rgb(42, 63, 95); fill-opacity: 1; white-space: pre; opacity: 1;" transform="translate(496.55,0)">80</text></g></g><g class="yaxislayer-above"><g class="ytick"><text text-anchor="end" x="81" y="4.199999999999999" transform="translate(0,404)" style="font-family: 'Open Sans', verdana, arial, sans-serif; font-size: 12px; fill: rgb(42, 63, 95); fill-opacity: 1; white-space: pre; opacity: 1;">0</text></g><g class="ytick"><text text-anchor="end" x="81" y="4.199999999999999" style="font-family: 'Open Sans', verdana, arial, sans-serif; font-size: 12px; fill: rgb(42, 63, 95); fill-opacity: 1; white-space: pre; opacity: 1;" transform="translate(0,346.4)">0.2e−4</text></g><g class="ytick"><text text-anchor="end" x="81" y="4.199999999999999" style="font-family: 'Open Sans', verdana, arial, sans-serif; font-size: 12px; fill: rgb(42, 63, 95); fill-opacity: 1; white-space: pre; opacity: 1;" transform="translate(0,288.8)">0.4e−4</text></g><g class="ytick"><text text-anchor="end" x="81" y="4.199999999999999" style="font-family: 'Open Sans', verdana, arial, sans-serif; font-size: 12px; fill: rgb(42, 63, 95); fill-opacity: 1; white-space: pre; opacity: 1;" transform="translate(0,231.2)">0.6e−4</text></g><g class="ytick"><text text-anchor="end" x="81" y="4.199999999999999" style="font-family: 'Open Sans', verdana, arial, sans-serif; font-size: 12px; fill: rgb(42, 63, 95); fill-opacity: 1; white-space: pre; opacity: 1;" transform="translate(0,173.6)">0.8e−4</text></g><g class="ytick"><text text-anchor="end" x="81" y="4.199999999999999" style="font-family: 'Open Sans', verdana, arial, sans-serif; font-size: 12px; fill: rgb(42, 63, 95); fill-opacity: 1; white-space: pre; opacity: 1;" transform="translate(0,116)">1e−4</text></g></g><g class="overaxes-above"/></g></g><g class="polarlayer"/><g class="ternarylayer"/><g class="geolayer"/><g class="funnelarealayer"/><g class="pielayer"/><g class="iciclelayer"/><g class="treemaplayer"/><g class="sunburstlayer"/><g class="glimages"/><defs id="topdefs-fb93e0"><g class="clips"/><clipPath id="legendfb93e0"><rect width="233" height="105" x="0" y="0"/></clipPath></defs><g class="layer-above"><g class="imagelayer"/><g class="shapelayer"/></g><g class="infolayer"><g class="legend" pointer-events="all" transform="translate(605.26,100)"><rect class="bg" shape-rendering="crispEdges" style="stroke: rgb(68, 68, 68); stroke-opacity: 1; fill: rgb(255, 255, 255); fill-opacity: 1; stroke-width: 0px;" width="233" height="105" x="0" y="0"/><g class="scrollbox" transform="" clip-path="url(#legendfb93e0)"><g class="groups"><g class="traces" transform="translate(0,14.5)" style="opacity: 1;"><text class="legendtext" text-anchor="start" x="40" y="4.680000000000001" style="font-family: 'Open Sans', verdana, arial, sans-serif; font-size: 12px; fill: rgb(42, 63, 95); fill-opacity: 1; white-space: pre;">cls.fc</text><g class="layers" style="opacity: 1;"><g class="legendfill"/><g class="legendlines"><path class="js-line" d="M5,0h30" style="fill: none; stroke: rgb(150, 195, 125); stroke-opacity: 1; stroke-width: 2px;"/></g><g class="legendsymbols"><g class="legendpoints"/></g></g><rect class="legendtoggle" x="0" y="-9.5" width="227.765625" height="19" style="fill: rgb(0, 0, 0); fill-opacity: 0;"/></g><g class="traces" transform="translate(0,33.5)" style="opacity: 1;"><text class="legendtext" text-anchor="start" x="40" y="4.680000000000001" style="font-family: 'Open Sans', verdana, arial, sans-serif; font-size: 12px; fill: rgb(42, 63, 95); fill-opacity: 1; white-space: pre;">star_att.3 star_att.2 star_att.1</text><g class="layers" style="opacity: 1;"><g class="legendfill"/><g class="legendlines"><path class="js-line" d="M5,0h30" style="fill: none; stroke: rgb(255, 190, 122); stroke-opacity: 1; stroke-width: 2px;"/></g><g class="legendsymbols"><g class="legendpoints"/></g></g><rect class="legendtoggle" x="0" y="-9.5" width="227.765625" height="19" style="fill: rgb(0, 0, 0); fill-opacity: 0;"/></g><g class="traces" transform="translate(0,52.5)" style="opacity: 1;"><text class="legendtext" text-anchor="start" x="40" y="4.680000000000001" style="font-family: 'Open Sans', verdana, arial, sans-serif; font-size: 12px; fill: rgb(42, 63, 95); fill-opacity: 1; white-space: pre;">ring_att.3 ring_att.2 ring_att.1</text><g class="layers" style="opacity: 1;"><g class="legendfill"/><g class="legendlines"><path class="js-line" d="M5,0h30" style="fill: none; stroke: rgb(250, 127, 111); stroke-opacity: 1; stroke-width: 2px;"/></g><g class="legendsymbols"><g class="legendpoints"/></g></g><rect class="legendtoggle" x="0" y="-9.5" width="227.765625" height="19" style="fill: rgb(0, 0, 0); fill-opacity: 0;"/></g><g class="traces" transform="translate(0,71.5)" style="opacity: 1;"><text class="legendtext" text-anchor="start" x="40" y="4.680000000000001" style="font-family: 'Open Sans', verdana, arial, sans-serif; font-size: 12px; fill: rgb(42, 63, 95); fill-opacity: 1; white-space: pre;">emb_fc</text><g class="layers" style="opacity: 1;"><g class="legendfill"/><g class="legendlines"><path class="js-line" d="M5,0h30" style="fill: none; stroke: rgb(130, 176, 210); stroke-opacity: 1; stroke-width: 2px;"/></g><g class="legendsymbols"><g class="legendpoints"/></g></g><rect class="legendtoggle" x="0" y="-9.5" width="227.765625" height="19" style="fill: rgb(0, 0, 0); fill-opacity: 0;"/></g><g class="traces" transform="translate(0,90.5)" style="opacity: 1;"><text class="legendtext" text-anchor="start" x="40" y="4.680000000000001" style="font-family: 'Open Sans', verdana, arial, sans-serif; font-size: 12px; fill: rgb(42, 63, 95); fill-opacity: 1; white-space: pre;">embedding</text><g class="layers" style="opacity: 1;"><g class="legendfill"/><g class="legendlines"><path class="js-line" d="M5,0h30" style="fill: none; stroke: rgb(190, 184, 220); stroke-opacity: 1; stroke-width: 2px;"/></g><g class="legendsymbols"><g class="legendpoints"/></g></g><rect class="legendtoggle" x="0" y="-9.5" width="227.765625" height="19" style="fill: rgb(0, 0, 0); fill-opacity: 0;"/></g></g></g><rect class="scrollbar" rx="20" ry="3" width="0" height="0" style="fill: rgb(128, 139, 164); fill-opacity: 1;" x="0" y="0"/></g><g class="g-gtitle"><text class="gtitle" x="42.5" y="50" text-anchor="start" dy="0em" style="font-family: 'Open Sans', verdana, arial, sans-serif; font-size: 17px; fill: rgb(42, 63, 95); opacity: 1; font-weight: normal; white-space: pre;">学习率衰减曲线</text></g><g class="g-xtitle"><text class="xtitle" x="338.5" y="460.8" text-anchor="middle" style="font-family: 'Open Sans', verdana, arial, sans-serif; font-size: 14px; fill: rgb(42, 63, 95); opacity: 1; font-weight: normal; white-space: pre;">epoch</text></g><g class="g-ytitle" transform="translate(2.0341796875,0)"><text class="ytitle" transform="rotate(-90,11.965625000000003,260)" x="11.965625000000003" y="260" text-anchor="middle" style="font-family: 'Open Sans', verdana, arial, sans-serif; font-size: 14px; fill: rgb(42, 63, 95); opacity: 1; font-weight: normal; white-space: pre;">lr</text></g></g></svg>