<svg width="647" height="457" xmlns="http://www.w3.org/2000/svg" xmlns:xlink="http://www.w3.org/1999/xlink" overflow="hidden"><defs><clipPath id="clip0"><rect x="305" y="141" width="647" height="457"/></clipPath><clipPath id="clip1"><rect x="654" y="292" width="185" height="156"/></clipPath><clipPath id="clip2"><rect x="838" y="292" width="113" height="156"/></clipPath><clipPath id="clip3"><rect x="654" y="314" width="185" height="156"/></clipPath><clipPath id="clip4"><rect x="838" y="314" width="113" height="156"/></clipPath><clipPath id="clip5"><rect x="654" y="336" width="185" height="157"/></clipPath><clipPath id="clip6"><rect x="838" y="336" width="113" height="157"/></clipPath><clipPath id="clip7"><rect x="654" y="359" width="185" height="156"/></clipPath><clipPath id="clip8"><rect x="838" y="359" width="113" height="156"/></clipPath><clipPath id="clip9"><rect x="654" y="381" width="185" height="156"/></clipPath><clipPath id="clip10"><rect x="838" y="381" width="113" height="156"/></clipPath><clipPath id="clip11"><rect x="654" y="403" width="185" height="156"/></clipPath><clipPath id="clip12"><rect x="838" y="403" width="113" height="156"/></clipPath><clipPath id="clip13"><rect x="654" y="425" width="185" height="156"/></clipPath><clipPath id="clip14"><rect x="838" y="425" width="113" height="156"/></clipPath><clipPath id="clip15"><rect x="654" y="447" width="185" height="156"/></clipPath><clipPath id="clip16"><rect x="838" y="447" width="113" height="156"/></clipPath></defs><g clip-path="url(#clip0)" transform="translate(-305 -141)"><path d="M308.5 435.001C308.5 425.335 316.335 417.5 326 417.5L572 417.5C581.665 417.5 589.5 425.335 589.5 435.001L589.5 505C589.5 514.665 581.665 522.5 572 522.5L326 522.5C316.335 522.5 308.5 514.665 308.5 505Z" stroke="#4472C4" stroke-width="1.33333" stroke-miterlimit="8" fill="#FFFFFF" fill-rule="evenodd"/><rect x="321.5" y="440.5" width="88" height="46" stroke="#000000" stroke-width="1.33333" stroke-miterlimit="8" fill="#FFFFFF"/><text font-family="DengXian,DengXian_MSFontService,sans-serif" font-weight="400" font-size="24" transform="translate(337.582 471)">Relay</text><rect x="488.5" y="441.5" width="88" height="46" stroke="#000000" stroke-width="1.33333" stroke-miterlimit="8" fill="#FFFFFF"/><text font-family="DengXian,DengXian_MSFontService,sans-serif" font-weight="400" font-size="24" transform="translate(503.165 471)">Node<tspan font-size="24" x="-105.781" y="39">Star</tspan><tspan font-size="24" x="-65.6147" y="39">-</tspan>Transformer</text><path d="M530.863 440.789 530.111 395.682 532.111 395.649 532.862 440.756ZM527.134 397.066 531 389 535.133 396.932Z" fill="#000000" fill-opacity="0.6"/><path d="M440.5 346.167C440.5 341.38 444.38 337.5 449.167 337.5L580.833 337.5C585.62 337.5 589.5 341.38 589.5 346.167L589.5 380.833C589.5 385.62 585.62 389.5 580.833 389.5L449.167 389.5C444.38 389.5 440.5 385.62 440.5 380.833Z" stroke="#4472C4" stroke-width="1.33333" stroke-miterlimit="8" fill="#FFFFFF" fill-rule="evenodd"/><text font-family="DengXian,DengXian_MSFontService,sans-serif" font-weight="400" font-size="24" transform="translate(457.082 371)">LSTM/CNN</text><rect x="308.5" y="337.5" width="96" height="52" stroke="#4472C4" stroke-width="1.33333" stroke-miterlimit="8" fill="#FFFFFF"/><text font-family="DengXian,DengXian_MSFontService,sans-serif" font-weight="400" font-size="24" transform="translate(319.874 371)">Concat</text><path d="M2.86653e-06-1 29.9584-0.999914 29.9584 1.00009-2.86653e-06 1ZM28.6251-3.99992 36.6251 0.000104987 28.6251 4.00008Z" fill="#000000" fill-opacity="0.6" transform="matrix(-1 0 0 1 440.625 363)"/><path d="M1-2.05293e-06 1.00009 44.4734-0.999909 44.4734-1 2.05293e-06ZM4.00009 43.14 0.000104987 51.14-3.99991 43.1401Z" fill="#000000" fill-opacity="0.6" transform="matrix(1 0 0 -1 365 440.14)"/><path d="M1-4.43247e-06 1.00008 17.0192-0.999924 17.0192-1 4.43247e-06ZM4.00007 15.6859 0.000104987 23.6859-3.99993 15.6859Z" fill="#000000" fill-opacity="0.6" transform="matrix(1 0 0 -1 356 336.686)"/><path d="M1-2.77735e-06 1.00009 31.1344-0.999914 31.1344-1 2.77735e-06ZM4.00008 29.801 0.000104987 37.801-3.99992 29.8011Z" fill="#000000" fill-opacity="0.6" transform="matrix(1 0 0 -1 440 559.801)"/><text font-family="Times New Roman,Times New Roman_MSFontService,sans-serif" font-weight="400" font-size="19" transform="translate(389.881 582)">Peptide + MHC<tspan font-size="19" x="-71.9911" y="-416">Output</tspan><tspan font-size="19" x="-71.9911" y="-394">Probabilities</tspan></text><path d="M308.5 285.334C308.5 282.112 311.112 279.5 314.334 279.5L398.667 279.5C401.888 279.5 404.5 282.112 404.5 285.334L404.5 308.667C404.5 311.888 401.888 314.5 398.667 314.5L314.334 314.5C311.112 314.5 308.5 311.888 308.5 308.667Z" stroke="#4472C4" stroke-width="1.33333" stroke-miterlimit="8" fill="#FFFFFF" fill-rule="evenodd"/><text font-family="Times New Roman,Times New Roman_MSFontService,sans-serif" font-weight="400" font-size="24" transform="translate(324.707 305)">Linear</text><path d="M308.5 224.5C308.5 221.186 311.186 218.5 314.5 218.5L398.5 218.5C401.814 218.5 404.5 221.186 404.5 224.5L404.5 248.5C404.5 251.814 401.814 254.5 398.5 254.5L314.5 254.5C311.186 254.5 308.5 251.814 308.5 248.5Z" stroke="#4472C4" stroke-width="1.33333" stroke-miterlimit="8" fill="#FFFFFF" fill-rule="evenodd"/><text font-family="Times New Roman,Times New Roman_MSFontService,sans-serif" font-weight="400" font-size="21" transform="translate(319.79 243)">Softmax</text><path d="M654.979 359.109 838.086 359.109 838.086 381.269 654.979 381.269Z" fill="#4472C4" fill-rule="evenodd" fill-opacity="0.2"/><path d="M838.086 359.109 950.905 359.109 950.905 381.269 838.086 381.269Z" fill="#4472C4" fill-rule="evenodd" fill-opacity="0.2"/><path d="M654.979 403.429 838.086 403.429 838.086 425.589 654.979 425.589Z" fill="#4472C4" fill-rule="evenodd" fill-opacity="0.2"/><path d="M838.086 403.429 950.905 403.429 950.905 425.589 838.086 425.589Z" fill="#4472C4" fill-rule="evenodd" fill-opacity="0.2"/><path d="M654.979 447.749 838.086 447.749 838.086 469.909 654.979 469.909Z" fill="#4472C4" fill-rule="evenodd" fill-opacity="0.2"/><path d="M838.086 447.749 950.905 447.749 950.905 469.909 838.086 469.909Z" fill="#4472C4" fill-rule="evenodd" fill-opacity="0.2"/><path d="M654.979 492.069 838.086 492.069 838.086 514.229 654.979 514.229Z" fill="#4472C4" fill-rule="evenodd" fill-opacity="0.2"/><path d="M838.086 492.069 950.905 492.069 950.905 514.229 838.086 514.229Z" fill="#4472C4" fill-rule="evenodd" fill-opacity="0.2"/><path d="M654.979 359.109 950.905 359.109" stroke="#4472C4" stroke-width="1.33333" stroke-linejoin="round" stroke-miterlimit="10" fill="none" fill-rule="evenodd"/><path d="M654.979 336.949 950.905 336.949" stroke="#4472C4" stroke-width="1.33333" stroke-linejoin="round" stroke-miterlimit="10" fill="none" fill-rule="evenodd"/><path d="M654.979 536.389 950.905 536.389" stroke="#4472C4" stroke-width="1.33333" stroke-linejoin="round" stroke-miterlimit="10" fill="none" fill-rule="evenodd"/><text font-family="DengXian,DengXian_MSFontService,sans-serif" font-weight="700" font-size="16" transform="translate(730.532 355)">参数<tspan font-size="16" x="147.963" y="0">取值</tspan></text><g clip-path="url(#clip1)"><text font-family="DengXian,DengXian_MSFontService,sans-serif" font-weight="700" font-size="16" transform="translate(662.179 377)">Embedding size</text></g><g clip-path="url(#clip2)"><text font-family="DengXian,DengXian_MSFontService,sans-serif" font-weight="400" font-size="16" transform="translate(918.119 377)">100</text></g><g clip-path="url(#clip3)"><text font-family="DengXian,DengXian_MSFontService,sans-serif" font-weight="700" font-size="16" transform="translate(662.179 399)">Hidden size</text></g><g clip-path="url(#clip4)"><text font-family="DengXian,DengXian_MSFontService,sans-serif" font-weight="400" font-size="16" transform="translate(918.119 399)">100</text></g><g clip-path="url(#clip5)"><text font-family="DengXian,DengXian_MSFontService,sans-serif" font-weight="700" font-size="16" transform="translate(662.179 421)">Layer num</text></g><g clip-path="url(#clip6)"><text font-family="DengXian,DengXian_MSFontService,sans-serif" font-weight="400" font-size="16" transform="translate(935.119 421)">3</text></g><g clip-path="url(#clip7)"><text font-family="DengXian,DengXian_MSFontService,sans-serif" font-weight="700" font-size="16" transform="translate(662.179 444)">Head num</text></g><g clip-path="url(#clip8)"><text font-family="DengXian,DengXian_MSFontService,sans-serif" font-weight="400" font-size="16" transform="translate(935.119 444)">5</text></g><g clip-path="url(#clip9)"><text font-family="DengXian,DengXian_MSFontService,sans-serif" font-weight="700" font-size="16" transform="translate(662.179 466)">Head dims</text></g><g clip-path="url(#clip10)"><text font-family="DengXian,DengXian_MSFontService,sans-serif" font-weight="400" font-size="16" transform="translate(926.619 466)">32</text></g><g clip-path="url(#clip11)"><text font-family="DengXian,DengXian_MSFontService,sans-serif" font-weight="700" font-size="16" transform="translate(662.179 488)">嵌入层</text></g><text font-family="DengXian,DengXian_MSFontService,sans-serif" font-weight="700" font-size="16" transform="translate(710.179 488)">Dropout</text><g clip-path="url(#clip12)"><text font-family="DengXian,DengXian_MSFontService,sans-serif" font-weight="400" font-size="16" transform="translate(923.119 488)">0.1</text></g><g clip-path="url(#clip13)"><text font-family="DengXian,DengXian_MSFontService,sans-serif" font-weight="700" font-size="16" transform="translate(662.179 510)">Dropout</text></g><g clip-path="url(#clip14)"><text font-family="DengXian,DengXian_MSFontService,sans-serif" font-weight="400" font-size="16" transform="translate(923.119 510)">0.1</text></g><g clip-path="url(#clip15)"><text font-family="DengXian,DengXian_MSFontService,sans-serif" font-weight="700" font-size="16" transform="translate(662.179 532)">分类器隐层维度</text></g><g clip-path="url(#clip16)"><text font-family="DengXian,DengXian_MSFontService,sans-serif" font-weight="400" font-size="16" transform="translate(918.119 532)">600</text></g><path d="M1-4.43247e-06 1.00008 17.0192-0.999924 17.0192-1 4.43247e-06ZM4.00007 15.6859 0.000104987 23.6859-3.99993 15.6859Z" fill="#000000" fill-opacity="0.6" transform="matrix(1 0 0 -1 356 278.686)"/><path d="M1-4.43247e-06 1.00008 17.0192-0.999924 17.0192-1 4.43247e-06ZM4.00007 15.6859 0.000104987 23.6859-3.99993 15.6859Z" fill="#000000" fill-opacity="0.6" transform="matrix(1 0 0 -1 356 218.686)"/></g></svg>