<svg width="675" height="509" xmlns="http://www.w3.org/2000/svg" xmlns:xlink="http://www.w3.org/1999/xlink" overflow="hidden"><defs><clipPath id="clip0"><rect x="519" y="48" width="675" height="509"/></clipPath></defs><g clip-path="url(#clip0)" transform="translate(-519 -48)"><path d="M606.5 230.001C606.5 218.126 616.126 208.5 628.001 208.5L714 208.5C725.874 208.5 735.5 218.126 735.5 230.001L735.5 389C735.5 400.874 725.874 410.5 714 410.5L628.001 410.5C616.126 410.5 606.5 400.874 606.5 389Z" stroke="#A5A5A5" stroke-width="0.666667" stroke-miterlimit="8" fill="#F2F2F2" fill-rule="evenodd"/><path d="M800.185 165.5 999.552 165.5C1006.7 165.5 1012.5 171.641 1012.5 179.216L1012.5 454.785C1012.5 462.359 1006.7 468.5 999.552 468.5L800.185 468.5C793.034 468.5 787.237 462.359 787.237 454.785L787.237 380.553 719.5 350.489 787.237 320.426 787.237 179.216C787.237 171.641 793.034 165.5 800.185 165.5Z" stroke="#000000" stroke-width="2.66667" stroke-miterlimit="8" stroke-opacity="0.6" fill="#FFFFFF" fill-rule="evenodd"/><path d="M1050.63 165.5 1183.13 165.5C1188.31 165.5 1192.5 169.701 1192.5 174.884L1192.5 459.116C1192.5 464.299 1188.31 468.5 1183.13 468.5L1050.63 468.5C1045.46 468.5 1041.26 464.299 1041.26 459.116L1041.26 296.043 995.5 279.35 1041.26 262.658 1041.26 174.884C1041.26 169.701 1045.46 165.5 1050.63 165.5Z" stroke="#000000" stroke-width="2.66667" stroke-miterlimit="8" stroke-opacity="0.6" fill="#FFFFFF" fill-rule="evenodd"/><path d="M626.5 133.5C626.5 131.291 628.291 129.5 630.5 129.5L711.5 129.5C713.709 129.5 715.5 131.291 715.5 133.5L715.5 149.5C715.5 151.709 713.709 153.5 711.5 153.5L630.5 153.5C628.291 153.5 626.5 151.709 626.5 149.5Z" stroke="#FF0000" stroke-width="1.33333" stroke-miterlimit="8" fill="#FFFFFF" fill-rule="evenodd"/><text font-family="Times New Roman,Times New Roman_MSFontService,sans-serif" font-weight="400" font-size="11" transform="translate(652.379 144)">Softmax</text><path d="M626.5 175.5C626.5 173.291 628.291 171.5 630.5 171.5L711.5 171.5C713.709 171.5 715.5 173.291 715.5 175.5L715.5 191.5C715.5 193.709 713.709 195.5 711.5 195.5L630.5 195.5C628.291 195.5 626.5 193.709 626.5 191.5Z" stroke="#A5A5A5" stroke-width="1.33333" stroke-miterlimit="8" fill="#FFFFFF" fill-rule="evenodd"/><text font-family="Times New Roman,Times New Roman_MSFontService,sans-serif" font-weight="400" font-size="11" transform="translate(656.629 186)">Linear</text><path d="M628.5 225.833C628.5 223.44 630.44 221.5 632.833 221.5L709.167 221.5C711.56 221.5 713.5 223.44 713.5 225.833L713.5 243.167C713.5 245.56 711.56 247.5 709.167 247.5L632.833 247.5C630.44 247.5 628.5 245.56 628.5 243.167Z" stroke="#ED7D31" stroke-width="1.33333" stroke-miterlimit="8" fill="#FFFFFF" fill-rule="evenodd"/><text font-family="Times New Roman,Times New Roman_MSFontService,sans-serif" font-weight="400" font-size="11" transform="translate(642.121 238)">Add &amp; Norm</text><path d="M628.5 261.667C628.5 259.366 630.366 257.5 632.667 257.5L709.333 257.5C711.635 257.5 713.5 259.366 713.5 261.667L713.5 278.333C713.5 280.635 711.635 282.5 709.333 282.5L632.667 282.5C630.366 282.5 628.5 280.635 628.5 278.333Z" stroke="#5B9BD5" stroke-width="1.33333" stroke-miterlimit="8" fill="#FFFFFF" fill-rule="evenodd"/><text font-family="Times New Roman,Times New Roman_MSFontService,sans-serif" font-weight="400" font-size="11" transform="translate(640.871 273)">Feed Forward</text><path d="M628.5 303.833C628.5 301.44 630.44 299.5 632.833 299.5L709.167 299.5C711.56 299.5 713.5 301.44 713.5 303.833L713.5 321.167C713.5 323.56 711.56 325.5 709.167 325.5L632.833 325.5C630.44 325.5 628.5 323.56 628.5 321.167Z" stroke="#ED7D31" stroke-width="1.33333" stroke-miterlimit="8" fill="#FFFFFF" fill-rule="evenodd"/><text font-family="Times New Roman,Times New Roman_MSFontService,sans-serif" font-weight="400" font-size="11" transform="translate(642.121 316)">Add &amp; Norm</text><path d="M628.5 339.667C628.5 336.261 631.261 333.5 634.667 333.5L707.333 333.5C710.739 333.5 713.5 336.261 713.5 339.667L713.5 364.333C713.5 367.739 710.739 370.5 707.333 370.5L634.667 370.5C631.261 370.5 628.5 367.739 628.5 364.333Z" stroke="#FFC000" stroke-width="1.33333" stroke-miterlimit="8" fill="#FFFFFF" fill-rule="evenodd"/><text font-family="Times New Roman,Times New Roman_MSFontService,sans-serif" font-weight="400" font-size="11" transform="translate(648.704 349)">Mul<tspan font-size="11" x="17.8334" y="0">-</tspan>Head <tspan font-size="11" x="1.66669" y="13">Attention</tspan></text><path d="M628.5 460.667C628.5 457.261 631.261 454.5 634.667 454.5L708.333 454.5C711.739 454.5 714.5 457.261 714.5 460.667L714.5 485.333C714.5 488.739 711.739 491.5 708.333 491.5L634.667 491.5C631.261 491.5 628.5 488.739 628.5 485.333Z" stroke="#70AD47" stroke-width="1.33333" stroke-miterlimit="8" fill="#FFFFFF" fill-rule="evenodd"/><text font-family="Times New Roman,Times New Roman_MSFontService,sans-serif" font-weight="400" font-size="13" transform="translate(656.775 470)">Input <tspan font-size="13" x="-16.6667" y="16">Embedding</tspan></text><path d="M1-3.79345e-06 1.0001 27.6758-0.999895 27.6758-1 3.79345e-06ZM4.0001 27.6758 0.000120161 31.6758-3.99989 27.6758 8.98131e-05 23.6758Z" fill="#000000" fill-opacity="0.6" transform="matrix(1 0 0 -1 671 523.676)"/><path d="M1-6.62379e-06 1.0001 15.85-0.999895 15.85-1 6.62379e-06ZM4.0001 15.8499 0.000131482 19.85-3.99989 15.85 7.84917e-05 11.85Z" fill="#000000" fill-opacity="0.6" transform="matrix(1 0 0 -1 671 453.85)"/><path d="M664.5 428C664.5 424.41 667.41 421.5 671 421.5 674.59 421.5 677.5 424.41 677.5 428 677.5 431.59 674.59 434.5 671 434.5 667.41 434.5 664.5 431.59 664.5 428Z" stroke="#000000" stroke-width="1.33333" stroke-miterlimit="8" fill="#FFFFFF" fill-rule="evenodd"/><text font-family="Times New Roman,Times New Roman_MSFontService,sans-serif" font-weight="400" font-size="24" transform="translate(663.608 436)">+</text><path d="M623.913 426.091 623.5 428.167C623.5 427.43 623.647 426.729 623.913 426.091ZM644.5 428.167C644.5 431.112 642.15 433.5 639.25 433.5 636.35 433.5 634 431.112 634 428.167 634 425.221 631.65 422.833 628.75 422.833 627.3 422.833 625.988 423.43 625.038 424.396L623.913 426.091 624.325 424.015C625.919 420.186 629.651 417.5 634 417.5 638.349 417.5 642.081 420.186 643.675 424.015L644.087 426.091 644.087 426.091C644.353 426.729 644.5 427.43 644.5 428.167Z" stroke="#000000" stroke-width="1.33333" stroke-miterlimit="8" fill="#FFFFFF" fill-rule="evenodd"/><path d="M644.087 429.909 643.675 431.985C642.081 435.814 638.349 438.5 634 438.5 629.651 438.5 625.919 435.814 624.325 431.985L623.913 429.909 623.913 429.909C623.647 429.271 623.5 428.57 623.5 427.833 623.5 424.888 625.85 422.5 628.75 422.5 631.65 422.5 634 424.888 634 427.833 634 430.779 636.35 433.167 639.25 433.167 640.7 433.167 642.012 432.57 642.962 431.605ZM644.5 427.833C644.5 428.57 644.353 429.271 644.087 429.909L644.087 429.909Z" stroke="#000000" stroke-width="1.33333" stroke-miterlimit="8" fill="#FFFFFF" fill-rule="evenodd"/><path d="M634 417.5C639.799 417.5 644.5 422.201 644.5 428 644.5 433.799 639.799 438.5 634 438.5 628.201 438.5 623.5 433.799 623.5 428 623.5 422.201 628.201 417.5 634 417.5Z" stroke="#000000" stroke-linejoin="round" stroke-miterlimit="10" fill="none" fill-rule="evenodd"/><path d="M0 0 19.3027 0.000104987" stroke="#000000" stroke-width="2" stroke-miterlimit="8" stroke-opacity="0.6" fill="none" fill-rule="evenodd" transform="matrix(-1 0 0 1 663.303 427)"/><path d="M1-2.0877e-06 1.0001 50.2884-0.999895 50.2884-1 2.0877e-06ZM4.0001 50.2884 0.000113338 54.2884-3.99989 50.2884 9.66361e-05 46.2884Z" fill="#000000" fill-opacity="0.6" transform="matrix(1 0 0 -1 671 420.288)"/><path d="M646 388 694.25 388" stroke="#000000" stroke-width="2" stroke-miterlimit="8" stroke-opacity="0.6" fill="none" fill-rule="evenodd"/><path d="M1-5.62933e-06 1.0001 18.65-0.999895 18.65-1 5.62933e-06ZM4.0001 18.65 0.000127504 22.65-3.99989 18.65 8.24696e-05 14.65Z" fill="#000000" fill-opacity="0.6" transform="matrix(1 0 0 -1 647 388.65)"/><path d="M1-5.68011e-06 1.0001 18.4832-0.999895 18.4833-1 5.68011e-06ZM4.0001 18.4832 0.000127707 22.4833-3.99989 18.4833 8.22664e-05 14.4833Z" fill="#000000" fill-opacity="0.6" transform="matrix(1 0 0 -1 694 388.483)"/><path d="M0 0 53.6693 0.000104987" stroke="#000000" stroke-width="2" stroke-miterlimit="8" stroke-opacity="0.6" fill="none" fill-rule="evenodd" transform="matrix(-1 0 0 1 669.669 397)"/><path d="M616 397.15 616 311 628 311 628 313 617 313 618 312 618 397.15ZM628 308 632 312 628 316 624 312Z" fill="#000000" fill-opacity="0.6"/><path d="M1-5.97886e-06 1.0001 17.5597-0.999895 17.5597-1 5.97886e-06ZM4.0001 17.5597 0.000128902 21.5597-3.99989 17.5597 8.10714e-05 13.5597Z" fill="#000000" fill-opacity="0.6" transform="matrix(1 0 0 -1 671 299.56)"/><path d="M0 0 53.8673 0.000104987" stroke="#000000" stroke-width="2" stroke-miterlimit="8" stroke-opacity="0.6" fill="none" fill-rule="evenodd" transform="matrix(-1 0 0 1 669.867 290)"/><path d="M616 289.36 616 233 628.159 233 628.159 235 617 235 618 234 618 289.36ZM628.159 230 632.159 234 628.159 238 624.159 234Z" fill="#000000" fill-opacity="0.6"/><path d="M1-1.06838e-05 1.0001 9.82676-0.999895 9.82678-1 1.06838e-05ZM4.0001 9.82673 0.000147722 13.8268-3.99989 9.82681 6.22518e-05 5.82677Z" fill="#000000" fill-opacity="0.6" transform="matrix(1 0 0 -1 671 256.827)"/><path d="M669.075 221.082 669 195.003 671 194.997 671.075 221.076ZM666 195.012 669.988 191 674 194.988 670.012 199Z" fill="#000000" fill-opacity="0.6"/><path d="M1-5.93835e-06 1.0001 17.6795-0.999895 17.6795-1 5.93835e-06ZM4.0001 17.6795 0.00012874 21.6795-3.99989 17.6795 8.12335e-05 13.6795Z" fill="#000000" fill-opacity="0.6" transform="matrix(1 0 0 -1 670 170.679)"/><path d="M1-5.65828e-06 1.0001 18.5545-0.999895 18.5545-1 5.65828e-06ZM4.0001 18.5545 0.00012762 22.5545-3.99989 18.5546 8.23537e-05 14.5545Z" fill="#000000" fill-opacity="0.6" transform="matrix(1 0 0 -1 670 128.555)"/><path d="M1-1.31235e-05 1.0001 7.99988-0.999895 7.99991-1 1.31235e-05ZM4.0001 7.99984 0.000157481 11.9999-3.99989 7.99995 5.24927e-05 3.99989Z" fill="#000000" fill-opacity="0.6" transform="matrix(1 0 0 -1 671 333)"/><path d="M858.5 209.833C858.5 207.44 860.44 205.5 862.833 205.5L933.167 205.5C935.56 205.5 937.5 207.44 937.5 209.833L937.5 227.167C937.5 229.56 935.56 231.5 933.167 231.5L862.833 231.5C860.44 231.5 858.5 229.56 858.5 227.167Z" stroke="#92D050" stroke-width="1.33333" stroke-miterlimit="8" fill="#FFFFFF" fill-rule="evenodd"/><text font-family="Times New Roman,Times New Roman_MSFontService,sans-serif" font-weight="400" font-size="13" transform="translate(878.427 223)">Concat<tspan font-size="19" x="-230.505" y="318">Inputs</tspan></text><path d="M818.5 267.833C818.5 263.783 821.783 260.5 825.833 260.5L981.167 260.5C985.217 260.5 988.5 263.783 988.5 267.833L988.5 297.167C988.5 301.217 985.217 304.5 981.167 304.5L825.833 304.5C821.783 304.5 818.5 301.217 818.5 297.167Z" stroke="#BF9000" stroke-width="1.33333" stroke-miterlimit="8" fill="#FFFFFF" fill-rule="evenodd"/><path d="M813.5 271.833C813.5 267.783 816.783 264.5 820.833 264.5L976.167 264.5C980.217 264.5 983.5 267.783 983.5 271.833L983.5 301.167C983.5 305.217 980.217 308.5 976.167 308.5L820.833 308.5C816.783 308.5 813.5 305.217 813.5 301.167Z" stroke="#BF9000" stroke-width="1.33333" stroke-miterlimit="8" fill="#FFFFFF" fill-rule="evenodd"/><path d="M809.5 275.833C809.5 271.783 812.783 268.5 816.833 268.5L972.167 268.5C976.217 268.5 979.5 271.783 979.5 275.833L979.5 305.167C979.5 309.217 976.217 312.5 972.167 312.5L816.833 312.5C812.783 312.5 809.5 309.217 809.5 305.167Z" stroke="#BF9000" stroke-linejoin="round" stroke-miterlimit="10" fill="#FFFFFF" fill-rule="evenodd"/><text font-family="Times New Roman,Times New Roman_MSFontService,sans-serif" font-weight="400" font-size="13" transform="translate(841.087 287)">Scaled Dot<tspan font-size="13" x="59" y="0">-</tspan>Product <tspan font-size="13" x="29.8333" y="16">Forward</tspan></text><path d="M804.5 341.5C804.5 338.739 806.739 336.5 809.5 336.5L853.5 336.5C856.261 336.5 858.5 338.739 858.5 341.5L858.5 361.5C858.5 364.261 856.261 366.5 853.5 366.5L809.5 366.5C806.739 366.5 804.5 364.261 804.5 361.5Z" stroke="#A5A5A5" stroke-width="1.33333" stroke-miterlimit="8" fill="#FFFFFF" fill-rule="evenodd"/><path d="M800.5 345.333C800.5 342.664 802.664 340.5 805.333 340.5L848.667 340.5C851.336 340.5 853.5 342.664 853.5 345.333L853.5 364.667C853.5 367.336 851.336 369.5 848.667 369.5L805.333 369.5C802.664 369.5 800.5 367.336 800.5 364.667Z" stroke="#A5A5A5" stroke-width="1.33333" stroke-miterlimit="8" fill="#FFFFFF" fill-rule="evenodd"/><path d="M796.5 348.5C796.5 345.739 798.739 343.5 801.5 343.5L844.5 343.5C847.261 343.5 849.5 345.739 849.5 348.5L849.5 368.5C849.5 371.261 847.261 373.5 844.5 373.5L801.5 373.5C798.739 373.5 796.5 371.261 796.5 368.5Z" stroke="#A5A5A5" stroke-width="1.33333" stroke-miterlimit="8" fill="#FFFFFF" fill-rule="evenodd"/><text font-family="Times New Roman,Times New Roman_MSFontService,sans-serif" font-weight="400" font-size="12" transform="translate(806.806 363)">Linear</text><path d="M1-2.29217e-06 1.00009 40.469-0.999907 40.469-1 2.29217e-06ZM9.27619e-05 40.469 4.00009 37.8023 0.000104987 45.8023-3.99991 37.8023Z" fill="#000000" fill-opacity="0.6" transform="matrix(1 0 0 -1 822 418.802)"/><path d="M0.822977-0.568074 12.3081 16.0706 10.6622 17.2068-0.822977 0.568074ZM11.4851 16.6387 12.1649 12.9292 13 18.8333 7.77566 15.9589Z" fill="#000000" fill-opacity="0.6" transform="matrix(1 0 0 -1 822 391.833)"/><text font-family="Times New Roman,Times New Roman_MSFontService,sans-serif" font-weight="400" font-size="13" transform="translate(818.321 437)">Q</text><path d="M873.5 341.5C873.5 338.739 875.739 336.5 878.5 336.5L922.5 336.5C925.261 336.5 927.5 338.739 927.5 341.5L927.5 361.5C927.5 364.261 925.261 366.5 922.5 366.5L878.5 366.5C875.739 366.5 873.5 364.261 873.5 361.5Z" stroke="#A5A5A5" stroke-width="1.33333" stroke-miterlimit="8" fill="#FFFFFF" fill-rule="evenodd"/><path d="M869.5 345.333C869.5 342.664 871.664 340.5 874.333 340.5L918.667 340.5C921.336 340.5 923.5 342.664 923.5 345.333L923.5 364.667C923.5 367.336 921.336 369.5 918.667 369.5L874.333 369.5C871.664 369.5 869.5 367.336 869.5 364.667Z" stroke="#A5A5A5" stroke-width="1.33333" stroke-miterlimit="8" fill="#FFFFFF" fill-rule="evenodd"/><path d="M865.5 348.5C865.5 345.739 867.739 343.5 870.5 343.5L913.5 343.5C916.261 343.5 918.5 345.739 918.5 348.5L918.5 368.5C918.5 371.261 916.261 373.5 913.5 373.5L870.5 373.5C867.739 373.5 865.5 371.261 865.5 368.5Z" stroke="#A5A5A5" stroke-width="1.33333" stroke-miterlimit="8" fill="#FFFFFF" fill-rule="evenodd"/><text font-family="Times New Roman,Times New Roman_MSFontService,sans-serif" font-weight="400" font-size="12" transform="translate(876.081 363)">Linear</text><path d="M1-2.29217e-06 1.00009 40.469-0.999907 40.469-1 2.29217e-06ZM9.27619e-05 40.469 4.00009 37.8023 0.000104987 45.8023-3.99991 37.8023Z" fill="#000000" fill-opacity="0.6" transform="matrix(1 0 0 -1 892 418.802)"/><path d="M0.822977-0.568074 12.3081 16.0706 10.6622 17.2068-0.822977 0.568074ZM11.4851 16.6387 12.1649 12.9292 13 18.8333 7.77566 15.9589Z" fill="#000000" fill-opacity="0.6" transform="matrix(1 0 0 -1 892 391.833)"/><text font-family="Times New Roman,Times New Roman_MSFontService,sans-serif" font-weight="400" font-size="13" transform="translate(887.596 437)">K</text><path d="M941.5 341.5C941.5 338.739 943.739 336.5 946.5 336.5L990.5 336.5C993.261 336.5 995.5 338.739 995.5 341.5L995.5 361.5C995.5 364.261 993.261 366.5 990.5 366.5L946.5 366.5C943.739 366.5 941.5 364.261 941.5 361.5Z" stroke="#A5A5A5" stroke-width="1.33333" stroke-miterlimit="8" fill="#FFFFFF" fill-rule="evenodd"/><path d="M937.5 345.5C937.5 342.739 939.739 340.5 942.5 340.5L986.5 340.5C989.261 340.5 991.5 342.739 991.5 345.5L991.5 365.5C991.5 368.261 989.261 370.5 986.5 370.5L942.5 370.5C939.739 370.5 937.5 368.261 937.5 365.5Z" stroke="#A5A5A5" stroke-width="1.33333" stroke-miterlimit="8" fill="#FFFFFF" fill-rule="evenodd"/><path d="M933.5 348.5C933.5 345.739 935.739 343.5 938.5 343.5L981.5 343.5C984.261 343.5 986.5 345.739 986.5 348.5L986.5 368.5C986.5 371.261 984.261 373.5 981.5 373.5L938.5 373.5C935.739 373.5 933.5 371.261 933.5 368.5Z" stroke="#A5A5A5" stroke-width="1.33333" stroke-miterlimit="8" fill="#FFFFFF" fill-rule="evenodd"/><text font-family="Times New Roman,Times New Roman_MSFontService,sans-serif" font-weight="400" font-size="12" transform="translate(944.064 363)">Linear</text><path d="M1-2.29217e-06 1.00009 40.469-0.999907 40.469-1 2.29217e-06ZM9.27619e-05 40.469 4.00009 37.8023 0.000104987 45.8023-3.99991 37.8023Z" fill="#000000" fill-opacity="0.6" transform="matrix(1 0 0 -1 960 418.802)"/><path d="M0.822977-0.568074 12.3081 16.0706 10.6622 17.2068-0.822977 0.568074ZM11.4851 16.6387 12.1649 12.9292 13 18.8333 7.77566 15.9589Z" fill="#000000" fill-opacity="0.6" transform="matrix(1 0 0 -1 960 391.833)"/><text font-family="Times New Roman,Times New Roman_MSFontService,sans-serif" font-weight="400" font-size="13" transform="translate(955.579 438)">V</text><path d="M0.999753-0.0222218 1.5625 25.2955-0.437009 25.34-0.999753 0.0222218ZM0.562744 25.3177 4.5025 22.5629 0.68126 30.6498-3.49553 22.7406Z" fill="#000000" fill-opacity="0.6" transform="matrix(1 0 0 -1 822 342.65)"/><path d="M1-4.43924e-06 1.00008 18.3164-0.999919 18.3164-1 4.43924e-06ZM8.1311e-05 18.3164 4.00007 15.6497 0.000104987 23.6498-3.99993 15.6498Z" fill="#000000" fill-opacity="0.6" transform="matrix(1 0 0 -1 831 335.65)"/><path d="M1-3.84219e-06 1.00008 21.9914-0.999915 21.9914-1 3.84219e-06ZM8.44952e-05 21.9914 4.00007 19.3247 0.000104987 27.3247-3.99993 19.3247Z" fill="#000000" fill-opacity="0.6" transform="matrix(1 0 0 -1 827 339.325)"/><path d="M0.999753-0.0222218 1.5625 25.2955-0.437009 25.34-0.999753 0.0222218ZM0.562744 25.3177 4.5025 22.5629 0.68126 30.6498-3.49553 22.7406Z" fill="#000000" fill-opacity="0.6" transform="matrix(1 0 0 -1 892 342.65)"/><path d="M1-4.43924e-06 1.00008 18.3164-0.999919 18.3164-1 4.43924e-06ZM8.1311e-05 18.3164 4.00007 15.6497 0.000104987 23.6498-3.99993 15.6498Z" fill="#000000" fill-opacity="0.6" transform="matrix(1 0 0 -1 900 335.65)"/><path d="M1-3.84219e-06 1.00008 21.9914-0.999915 21.9914-1 3.84219e-06ZM8.44952e-05 21.9914 4.00007 19.3247 0.000104987 27.3247-3.99993 19.3247Z" fill="#000000" fill-opacity="0.6" transform="matrix(1 0 0 -1 896 339.325)"/><path d="M0.999753-0.0222218 1.5625 25.2955-0.437009 25.34-0.999753 0.0222218ZM0.562744 25.3177 4.5025 22.5629 0.68126 30.6498-3.49553 22.7406Z" fill="#000000" fill-opacity="0.6" transform="matrix(1 0 0 -1 959 343.65)"/><path d="M1-4.43924e-06 1.00008 18.3164-0.999919 18.3164-1 4.43924e-06ZM8.1311e-05 18.3164 4.00007 15.6497 0.000104987 23.6498-3.99993 15.6498Z" fill="#000000" fill-opacity="0.6" transform="matrix(1 0 0 -1 967 336.65)"/><path d="M1-3.84219e-06 1.00008 21.9914-0.999915 21.9914-1 3.84219e-06ZM8.44952e-05 21.9914 4.00007 19.3247 0.000104987 27.3247-3.99993 19.3247Z" fill="#000000" fill-opacity="0.6" transform="matrix(1 0 0 -1 963 340.325)"/><path d="M1-2.90152e-06 1.00009 30.8501-0.99991 30.8501-1 2.90152e-06ZM8.95121e-05 30.8501 4.00008 28.1834 0.000104987 36.1834-3.99992 28.1834Z" fill="#000000" fill-opacity="0.6" transform="matrix(1 0 0 -1 894 268.183)"/><path d="M1-3.24702e-06 1.0001 29.6667-0.999904 29.6667-1 3.24702e-06ZM9.63282e-05 29.6667 2.66675 27 0.000104987 32.3333-2.66658 27Z" fill="#000000" fill-opacity="0.6" transform="matrix(1 0 0 -1 898 264.333)"/><path d="M1-3.77198e-06 1.00009 25.1667-0.999905 25.1667-1 3.77198e-06ZM9.49283e-05 25.1667 2.66675 22.5 0.000104987 27.8334-2.66658 22.5001Z" fill="#000000" fill-opacity="0.6" transform="matrix(1 0 0 -1 903 259.833)"/><path d="M897 205.184 897 186.333 899 186.333 899 205.184ZM898 186.333 894 189 898 181 902 189Z" fill="#000000" fill-opacity="0.6"/><path d="M4.79989 24.0658C3.47443 24.0658 2.39993 21.3722 2.39993 18.0494L2.39996 18.0494C2.39996 14.7266 1.32546 12.0329 -3.82989e-16 12.0329 1.32546 12.0329 2.39996 9.33925 2.39996 6.01646L2.39996 6.01646C2.39996 2.69366 3.47446 -7.65975e-16 4.79992-1.53195e-15" stroke="#000000" stroke-width="0.666667" stroke-miterlimit="8" fill="none" fill-rule="evenodd" transform="matrix(-0.925191 -0.379503 -0.379503 0.925191 993.103 272.715)"/><text font-family="Times New Roman,Times New Roman_MSFontService,sans-serif" font-weight="400" font-size="13" transform="translate(994.345 273)">h</text><path d="M1071.5 372C1071.5 369.515 1073.51 367.5 1076 367.5L1137 367.5C1139.49 367.5 1141.5 369.515 1141.5 372L1141.5 390C1141.5 392.485 1139.49 394.5 1137 394.5L1076 394.5C1073.51 394.5 1071.5 392.485 1071.5 390Z" stroke="#7030A0" stroke-width="1.33333" stroke-miterlimit="8" fill="#FFFFFF" fill-rule="evenodd"/><text font-family="Times New Roman,Times New Roman_MSFontService,sans-serif" font-weight="400" font-size="13" transform="translate(1084.2 385)">MatMul</text><path d="M1071.5 324C1071.5 321.515 1073.51 319.5 1076 319.5L1137 319.5C1139.49 319.5 1141.5 321.515 1141.5 324L1141.5 342C1141.5 344.485 1139.49 346.5 1137 346.5L1076 346.5C1073.51 346.5 1071.5 344.485 1071.5 342Z" stroke="#FFC000" stroke-width="1.33333" stroke-miterlimit="8" fill="#FFFFFF" fill-rule="evenodd"/><text font-family="Times New Roman,Times New Roman_MSFontService,sans-serif" font-weight="400" font-size="13" transform="translate(1092.62 338)">scale</text><path d="M1071.5 276.167C1071.5 273.589 1073.59 271.5 1076.17 271.5L1136.83 271.5C1139.41 271.5 1141.5 273.589 1141.5 276.167L1141.5 294.833C1141.5 297.411 1139.41 299.5 1136.83 299.5L1076.17 299.5C1073.59 299.5 1071.5 297.411 1071.5 294.833Z" stroke="#FF0000" stroke-width="1.33333" stroke-miterlimit="8" fill="#FFFFFF" fill-rule="evenodd"/><text font-family="Times New Roman,Times New Roman_MSFontService,sans-serif" font-weight="400" font-size="13" transform="translate(1083.19 290)">Softmax</text><path d="M1102.5 227C1102.5 224.515 1104.51 222.5 1107 222.5L1167 222.5C1169.49 222.5 1171.5 224.515 1171.5 227L1171.5 245C1171.5 247.485 1169.49 249.5 1167 249.5L1107 249.5C1104.51 249.5 1102.5 247.485 1102.5 245Z" stroke="#7030A0" stroke-width="1.33333" stroke-miterlimit="8" fill="#FFFFFF" fill-rule="evenodd"/><text font-family="Times New Roman,Times New Roman_MSFontService,sans-serif" font-weight="400" font-size="13" transform="translate(1114.68 240)">MatMul</text><path d="M1-5.17489e-06 1.00008 14.9544-0.999923 14.9544-1 5.17489e-06ZM7.73875e-05 14.9544 4.00006 12.2877 0.000104987 20.2878-3.99994 12.2878Z" fill="#000000" fill-opacity="0.6" transform="matrix(1 0 0 -1 1106 366.288)"/><path d="M1105.26 319.301 1105.07 304.346 1107.07 304.32 1107.26 319.275ZM1106.07 304.333 1102.1 307.05 1106 299 1110.1 306.949Z" fill="#000000" fill-opacity="0.6"/><path d="M1105 270.858 1105 253.333 1107 253.333 1107 270.858ZM1106 253.333 1102 256 1106 248 1110 256Z" fill="#000000" fill-opacity="0.6"/><path d="M1-5.17489e-06 1.00008 14.9544-0.999923 14.9544-1 5.17489e-06ZM7.73875e-05 14.9544 4.00006 12.2877 0.000104987 20.2878-3.99994 12.2878Z" fill="#000000" fill-opacity="0.6" transform="matrix(1 0 0 -1 1090 415.288)"/><path d="M1-5.17489e-06 1.00008 14.9544-0.999923 14.9544-1 5.17489e-06ZM7.73875e-05 14.9544 4.00006 12.2877 0.000104987 20.2878-3.99994 12.2878Z" fill="#000000" fill-opacity="0.6" transform="matrix(1 0 0 -1 1120 415.288)"/><path d="M1-6.37659e-07 1.0001 159.311-0.999898 159.311-1 6.37659e-07ZM0.000101586 159.311 4.0001 156.644 0.000104987 164.644-3.9999 156.644Z" fill="#000000" fill-opacity="0.6" transform="matrix(1 0 0 -1 1158 413.644)"/><path d="M1136 222.103 1136 201.333 1138 201.333 1138 222.103ZM1137 201.333 1133 204 1137 196 1141 204Z" fill="#000000" fill-opacity="0.6"/><text font-family="Times New Roman,Times New Roman_MSFontService,sans-serif" font-weight="400" font-size="13" transform="translate(1085.57 436)">Q<tspan font-size="13" x="32.1304" y="0">K</tspan><tspan font-size="13" x="67.886" y="-1">V</tspan><tspan font-size="19" x="-453.766" y="-363">Output</tspan><tspan font-size="19" x="-453.766" y="-341">Probabilities</tspan><tspan font-size="19" x="-554.688" y="-12">Positional </tspan><tspan font-size="19" x="-554.688" y="10">Encoding</tspan></text></g></svg>